<svg width="25" height="29" viewBox="0 0 25 29" fill="none" xmlns="http://www.w3.org/2000/svg">
<path d="M1.875 29.0001C0.84125 29.0001 0 28.1989 0 27.2144V2.21443C0 1.2299 0.84125 0.428711 1.875 0.428711H16.9062C21.3675 0.428711 24.9988 3.88585 25 8.13466V27.2144C25 28.1989 24.1588 29.0001 23.125 29.0001H1.875ZM1.875 1.61919C1.53 1.61919 1.25 1.88585 1.25 2.21443V27.2144C1.25 27.543 1.53 27.8097 1.875 27.8097H23.125C23.47 27.8097 23.75 27.543 23.75 27.2144V8.13466C23.75 7.95252 23.7413 7.76323 23.7225 7.57157H19.375C18.3412 7.57157 17.5 6.77038 17.5 5.78585V1.64538C17.2975 1.62752 17.1012 1.61919 16.9062 1.61919H1.875ZM18.75 5.78585C18.75 6.11443 19.03 6.38109 19.375 6.38109H23.4963C22.8525 4.19538 21.045 2.47276 18.75 1.86085V5.78585Z" fill="#5A5AE1"/>
<path d="M4.18791 24.2369C3.8476 24.2369 3.57141 23.9703 3.57141 23.6417V16.5C3.57141 16.1715 3.8476 15.9048 4.18791 15.9048H6.0374C7.39739 15.9048 8.50338 16.9726 8.50338 18.2857C8.50338 19.5988 7.39739 20.6667 6.0374 20.6667H4.8044V23.6417C4.8044 23.9703 4.52821 24.2369 4.18791 24.2369ZM6.0374 19.4762C6.71678 19.4762 7.27039 18.9429 7.27039 18.2857C7.27039 17.6286 6.71678 17.0953 6.0374 17.0953H4.8044V19.4762H6.0374ZM10.3529 24.2381C10.0126 24.2381 9.73638 23.9715 9.73638 23.6429V16.5C9.73638 16.1715 10.0126 15.9048 10.3529 15.9048C12.7326 15.9048 14.6684 17.7738 14.6684 20.0715C14.6684 22.3691 12.7326 24.2381 10.3529 24.2381ZM10.9694 22.9869C12.3762 22.7072 13.4354 21.4857 13.4354 20.0715C13.4354 18.6572 12.3762 17.4345 10.9694 17.156V22.9869ZM16.5178 24.2381C16.1775 24.2381 15.9013 23.9715 15.9013 23.6429V17.6905C15.9013 16.706 16.7311 15.9048 17.7508 15.9048H20.2168C20.5571 15.9048 20.8333 16.1715 20.8333 16.5C20.8333 16.8286 20.5571 17.0953 20.2168 17.0953H17.7508C17.4105 17.0953 17.1343 17.3619 17.1343 17.6905V19.475H18.9838C19.3241 19.475 19.6003 19.7417 19.6003 20.0703C19.6003 20.3988 19.3241 20.6655 18.9838 20.6655H17.1343V23.6429C17.1343 23.9715 16.8581 24.2381 16.5178 24.2381Z" fill="#5A5AE1"/>
</svg>
