<svg width="22" height="24" viewBox="0 0 22 24" fill="none" xmlns="http://www.w3.org/2000/svg">
<path d="M11.5 12C11.5 10.0439 11.5 8.94714 11.5 6.991L13.5 7V8.5L11.5 9.491L12.25 9.991L13.5 10.5V12L11.5 11.991M4.5 12.009C4.5 10.1411 4.5 9.09387 4.5 7.22599M2.89999 6.99098H5.89999M10 7.00001C9.02369 7.00001 8.47631 7.00001 7.5 7.00001C7.5 7.97632 7.5 8.51469 7.5 9.491C8.47631 9.491 9.02369 9.5 10 9.5" stroke="#9BAEB8" stroke-linecap="round" stroke-linejoin="round"/>
<path d="M10 9.5C10 10.281 10 11.219 10 12" stroke="#9BAEB8" stroke-linecap="round" stroke-linejoin="round"/>
<path d="M7.5 12C8.47631 12 9.02369 12.009 10 12.009" stroke="#9BAEB8" stroke-linecap="round" stroke-linejoin="round"/>
</svg>
