<?xml version="1.0" encoding="utf-8"?>
<svg width="20" height="20" viewBox="0 0 20 20" xmlns="http://www.w3.org/2000/svg">
  <g fill="none" fill-rule="evenodd">
    <path d="M 2.183 12.077 C 2.183 12.077 2.19 7.136 2.194 7.143 M 2.184 9.215 L 4.324 9.201 M 2.182 7.134 L 5.044 7.117 M 7.603 12.117 L 9.083 12.112 C 11.021 12.105 11.016 7.093 9.078 7.1 L 7.596 7.116 L 7.596 12.116 M 14.581 12.057 C 14.581 12.057 13.09 7.13 13.09 7.102 M 18.765 7.082 L 17.365 12.038" stroke="#9BAEB8" stroke-linecap="round" stroke-linejoin="round"/>
    <path d="M 2.183 12.077 C 2.183 12.077 2.19 7.136 2.194 7.143 M 2.184 9.215 L 4.324 9.201 M 2.182 7.134 L 5.044 7.117 M 7.603 12.117 L 9.083 12.112 C 11.021 12.105 11.016 7.093 9.078 7.1 L 7.596 7.116 L 7.596 12.116 M 14.581 12.057 C 14.581 12.057 13.09 7.13 13.09 7.102 M 18.765 7.082 L 17.365 12.038" stroke="#9BAEB8" stroke-linecap="round" stroke-linejoin="round"/>
    <path d="M 2.183 12.077 C 2.183 12.077 2.19 7.136 2.194 7.143 M 2.184 9.215 L 4.324 9.201 M 2.182 7.134 L 5.044 7.117 M 7.603 12.117 L 9.083 12.112 C 11.021 12.105 11.016 7.093 9.078 7.1 L 7.596 7.116 L 7.596 12.116 M 14.605 12.069 L 15.965 9.982 M 17.372 12.057 L 15.961 9.992" stroke="#9BAEB8" stroke-linecap="round" stroke-linejoin="round"/>
  </g>
</svg>